<mxfile host="Electron" agent="Mozilla/5.0 (Windows NT 10.0; Win64; x64) AppleWebKit/537.36 (KHTML, like Gecko) draw.io/27.0.9 Chrome/134.0.6998.205 Electron/35.4.0 Safari/537.36" version="27.0.9">
  <diagram name="Page-1" id="XD3CFz5gNcqXrD_n5w-h">
    <mxGraphModel dx="1057" dy="549" grid="1" gridSize="10" guides="1" tooltips="1" connect="1" arrows="1" fold="1" page="1" pageScale="1" pageWidth="850" pageHeight="1100" math="0" shadow="0">
      <root>
        <mxCell id="0" />
        <mxCell id="1" parent="0" />
        <mxCell id="VvGGJhDn4q0LMe5ba3Hn-232" value="&lt;&lt;interface&gt;&gt;&#xa;IBook" style="swimlane;fontStyle=1;align=center;verticalAlign=top;childLayout=stackLayout;horizontal=1;startSize=51;horizontalStack=0;resizeParent=1;resizeParentMax=0;resizeLast=0;collapsible=0;marginBottom=0;" vertex="1" parent="1">
          <mxGeometry x="2979" y="1252" width="224" height="229" as="geometry" />
        </mxCell>
        <mxCell id="VvGGJhDn4q0LMe5ba3Hn-233" style="line;strokeWidth=1;fillColor=none;align=left;verticalAlign=middle;spacingTop=-1;spacingLeft=3;spacingRight=3;rotatable=0;labelPosition=right;points=[];portConstraint=eastwest;strokeColor=inherit;" vertex="1" parent="VvGGJhDn4q0LMe5ba3Hn-232">
          <mxGeometry y="51" width="224" height="8" as="geometry" />
        </mxCell>
        <mxCell id="VvGGJhDn4q0LMe5ba3Hn-234" value="+getIsbn() : : String" style="text;strokeColor=none;fillColor=none;align=left;verticalAlign=top;spacingLeft=4;spacingRight=4;overflow=hidden;rotatable=0;points=[[0,0.5],[1,0.5]];portConstraint=eastwest;" vertex="1" parent="VvGGJhDn4q0LMe5ba3Hn-232">
          <mxGeometry y="59" width="224" height="34" as="geometry" />
        </mxCell>
        <mxCell id="VvGGJhDn4q0LMe5ba3Hn-235" value="+getTitle() : : String" style="text;strokeColor=none;fillColor=none;align=left;verticalAlign=top;spacingLeft=4;spacingRight=4;overflow=hidden;rotatable=0;points=[[0,0.5],[1,0.5]];portConstraint=eastwest;" vertex="1" parent="VvGGJhDn4q0LMe5ba3Hn-232">
          <mxGeometry y="93" width="224" height="34" as="geometry" />
        </mxCell>
        <mxCell id="VvGGJhDn4q0LMe5ba3Hn-236" value="+getYear() : : int" style="text;strokeColor=none;fillColor=none;align=left;verticalAlign=top;spacingLeft=4;spacingRight=4;overflow=hidden;rotatable=0;points=[[0,0.5],[1,0.5]];portConstraint=eastwest;" vertex="1" parent="VvGGJhDn4q0LMe5ba3Hn-232">
          <mxGeometry y="127" width="224" height="34" as="geometry" />
        </mxCell>
        <mxCell id="VvGGJhDn4q0LMe5ba3Hn-237" value="+getPrice() : : double" style="text;strokeColor=none;fillColor=none;align=left;verticalAlign=top;spacingLeft=4;spacingRight=4;overflow=hidden;rotatable=0;points=[[0,0.5],[1,0.5]];portConstraint=eastwest;" vertex="1" parent="VvGGJhDn4q0LMe5ba3Hn-232">
          <mxGeometry y="161" width="224" height="34" as="geometry" />
        </mxCell>
        <mxCell id="VvGGJhDn4q0LMe5ba3Hn-238" value="+getAuthor() : : String" style="text;strokeColor=none;fillColor=none;align=left;verticalAlign=top;spacingLeft=4;spacingRight=4;overflow=hidden;rotatable=0;points=[[0,0.5],[1,0.5]];portConstraint=eastwest;" vertex="1" parent="VvGGJhDn4q0LMe5ba3Hn-232">
          <mxGeometry y="195" width="224" height="34" as="geometry" />
        </mxCell>
        <mxCell id="VvGGJhDn4q0LMe5ba3Hn-239" value="&lt;&lt;interface&gt;&gt;&#xa;IStockable" style="swimlane;fontStyle=1;align=center;verticalAlign=top;childLayout=stackLayout;horizontal=1;startSize=62.25;horizontalStack=0;resizeParent=1;resizeParentMax=0;resizeLast=0;collapsible=0;marginBottom=0;" vertex="1" parent="1">
          <mxGeometry x="3870" y="700" width="283" height="154.25" as="geometry" />
        </mxCell>
        <mxCell id="VvGGJhDn4q0LMe5ba3Hn-240" style="line;strokeWidth=1;fillColor=none;align=left;verticalAlign=middle;spacingTop=-1;spacingLeft=3;spacingRight=3;rotatable=0;labelPosition=right;points=[];portConstraint=eastwest;strokeColor=inherit;" vertex="1" parent="VvGGJhDn4q0LMe5ba3Hn-239">
          <mxGeometry y="62.25" width="283" height="8" as="geometry" />
        </mxCell>
        <mxCell id="VvGGJhDn4q0LMe5ba3Hn-241" value="+getStock() : : int" style="text;strokeColor=none;fillColor=none;align=left;verticalAlign=top;spacingLeft=4;spacingRight=4;overflow=hidden;rotatable=0;points=[[0,0.5],[1,0.5]];portConstraint=eastwest;" vertex="1" parent="VvGGJhDn4q0LMe5ba3Hn-239">
          <mxGeometry y="70.25" width="283" height="42" as="geometry" />
        </mxCell>
        <mxCell id="VvGGJhDn4q0LMe5ba3Hn-242" value="+reduceStock(qty: int) : : void" style="text;strokeColor=none;fillColor=none;align=left;verticalAlign=top;spacingLeft=4;spacingRight=4;overflow=hidden;rotatable=0;points=[[0,0.5],[1,0.5]];portConstraint=eastwest;" vertex="1" parent="VvGGJhDn4q0LMe5ba3Hn-239">
          <mxGeometry y="112.25" width="283" height="42" as="geometry" />
        </mxCell>
        <mxCell id="VvGGJhDn4q0LMe5ba3Hn-243" value="&lt;&lt;interface&gt;&gt;&#xa;IShippable" style="swimlane;fontStyle=1;align=center;verticalAlign=top;childLayout=stackLayout;horizontal=1;startSize=71;horizontalStack=0;resizeParent=1;resizeParentMax=0;resizeLast=0;collapsible=0;marginBottom=0;" vertex="1" parent="1">
          <mxGeometry x="3865" y="924" width="292" height="126" as="geometry" />
        </mxCell>
        <mxCell id="VvGGJhDn4q0LMe5ba3Hn-244" style="line;strokeWidth=1;fillColor=none;align=left;verticalAlign=middle;spacingTop=-1;spacingLeft=3;spacingRight=3;rotatable=0;labelPosition=right;points=[];portConstraint=eastwest;strokeColor=inherit;" vertex="1" parent="VvGGJhDn4q0LMe5ba3Hn-243">
          <mxGeometry y="71" width="292" height="8" as="geometry" />
        </mxCell>
        <mxCell id="VvGGJhDn4q0LMe5ba3Hn-245" value="+shipTo(address: String) : : void" style="text;strokeColor=none;fillColor=none;align=left;verticalAlign=top;spacingLeft=4;spacingRight=4;overflow=hidden;rotatable=0;points=[[0,0.5],[1,0.5]];portConstraint=eastwest;" vertex="1" parent="VvGGJhDn4q0LMe5ba3Hn-243">
          <mxGeometry y="79" width="292" height="47" as="geometry" />
        </mxCell>
        <mxCell id="VvGGJhDn4q0LMe5ba3Hn-246" value="&lt;&lt;interface&gt;&gt;&#xa;IEmailable" style="swimlane;fontStyle=1;align=center;verticalAlign=top;childLayout=stackLayout;horizontal=1;startSize=71;horizontalStack=0;resizeParent=1;resizeParentMax=0;resizeLast=0;collapsible=0;marginBottom=0;" vertex="1" parent="1">
          <mxGeometry x="3867" y="1124" width="289" height="126" as="geometry" />
        </mxCell>
        <mxCell id="VvGGJhDn4q0LMe5ba3Hn-247" style="line;strokeWidth=1;fillColor=none;align=left;verticalAlign=middle;spacingTop=-1;spacingLeft=3;spacingRight=3;rotatable=0;labelPosition=right;points=[];portConstraint=eastwest;strokeColor=inherit;" vertex="1" parent="VvGGJhDn4q0LMe5ba3Hn-246">
          <mxGeometry y="71" width="289" height="8" as="geometry" />
        </mxCell>
        <mxCell id="VvGGJhDn4q0LMe5ba3Hn-248" value="+emailTo(email: String) : : void" style="text;strokeColor=none;fillColor=none;align=left;verticalAlign=top;spacingLeft=4;spacingRight=4;overflow=hidden;rotatable=0;points=[[0,0.5],[1,0.5]];portConstraint=eastwest;" vertex="1" parent="VvGGJhDn4q0LMe5ba3Hn-246">
          <mxGeometry y="79" width="289" height="47" as="geometry" />
        </mxCell>
        <mxCell id="VvGGJhDn4q0LMe5ba3Hn-249" value="&lt;&lt;interface&gt;&gt;&#xa;IPurchasable" style="swimlane;fontStyle=1;align=center;verticalAlign=top;childLayout=stackLayout;horizontal=1;startSize=71;horizontalStack=0;resizeParent=1;resizeParentMax=0;resizeLast=0;collapsible=0;marginBottom=0;" vertex="1" parent="1">
          <mxGeometry x="3879" y="1324" width="265" height="126" as="geometry" />
        </mxCell>
        <mxCell id="VvGGJhDn4q0LMe5ba3Hn-250" style="line;strokeWidth=1;fillColor=none;align=left;verticalAlign=middle;spacingTop=-1;spacingLeft=3;spacingRight=3;rotatable=0;labelPosition=right;points=[];portConstraint=eastwest;strokeColor=inherit;" vertex="1" parent="VvGGJhDn4q0LMe5ba3Hn-249">
          <mxGeometry y="71" width="265" height="8" as="geometry" />
        </mxCell>
        <mxCell id="VvGGJhDn4q0LMe5ba3Hn-251" value="+purchase(qty: int) : : void" style="text;strokeColor=none;fillColor=none;align=left;verticalAlign=top;spacingLeft=4;spacingRight=4;overflow=hidden;rotatable=0;points=[[0,0.5],[1,0.5]];portConstraint=eastwest;" vertex="1" parent="VvGGJhDn4q0LMe5ba3Hn-249">
          <mxGeometry y="79" width="265" height="47" as="geometry" />
        </mxCell>
        <mxCell id="VvGGJhDn4q0LMe5ba3Hn-252" value="&lt;&lt;abstract&gt;&gt;&#xa;Book" style="swimlane;fontStyle=1;align=center;verticalAlign=top;childLayout=stackLayout;horizontal=1;startSize=45.913043478260875;horizontalStack=0;resizeParent=1;resizeParentMax=0;resizeLast=0;collapsible=0;marginBottom=0;" vertex="1" parent="1">
          <mxGeometry x="3254" y="1195" width="221" height="363.9130434782609" as="geometry" />
        </mxCell>
        <mxCell id="VvGGJhDn4q0LMe5ba3Hn-253" value="-isbn: String" style="text;strokeColor=none;fillColor=none;align=left;verticalAlign=top;spacingLeft=4;spacingRight=4;overflow=hidden;rotatable=0;points=[[0,0.5],[1,0.5]];portConstraint=eastwest;" vertex="1" parent="VvGGJhDn4q0LMe5ba3Hn-252">
          <mxGeometry y="45.913043478260875" width="221" height="31" as="geometry" />
        </mxCell>
        <mxCell id="VvGGJhDn4q0LMe5ba3Hn-254" value="-title: String" style="text;strokeColor=none;fillColor=none;align=left;verticalAlign=top;spacingLeft=4;spacingRight=4;overflow=hidden;rotatable=0;points=[[0,0.5],[1,0.5]];portConstraint=eastwest;" vertex="1" parent="VvGGJhDn4q0LMe5ba3Hn-252">
          <mxGeometry y="76.91304347826087" width="221" height="31" as="geometry" />
        </mxCell>
        <mxCell id="VvGGJhDn4q0LMe5ba3Hn-255" value="-year: int" style="text;strokeColor=none;fillColor=none;align=left;verticalAlign=top;spacingLeft=4;spacingRight=4;overflow=hidden;rotatable=0;points=[[0,0.5],[1,0.5]];portConstraint=eastwest;" vertex="1" parent="VvGGJhDn4q0LMe5ba3Hn-252">
          <mxGeometry y="107.91304347826087" width="221" height="31" as="geometry" />
        </mxCell>
        <mxCell id="VvGGJhDn4q0LMe5ba3Hn-256" value="-price: double" style="text;strokeColor=none;fillColor=none;align=left;verticalAlign=top;spacingLeft=4;spacingRight=4;overflow=hidden;rotatable=0;points=[[0,0.5],[1,0.5]];portConstraint=eastwest;" vertex="1" parent="VvGGJhDn4q0LMe5ba3Hn-252">
          <mxGeometry y="138.91304347826087" width="221" height="31" as="geometry" />
        </mxCell>
        <mxCell id="VvGGJhDn4q0LMe5ba3Hn-257" value="-author: String" style="text;strokeColor=none;fillColor=none;align=left;verticalAlign=top;spacingLeft=4;spacingRight=4;overflow=hidden;rotatable=0;points=[[0,0.5],[1,0.5]];portConstraint=eastwest;" vertex="1" parent="VvGGJhDn4q0LMe5ba3Hn-252">
          <mxGeometry y="169.91304347826087" width="221" height="31" as="geometry" />
        </mxCell>
        <mxCell id="VvGGJhDn4q0LMe5ba3Hn-258" style="line;strokeWidth=1;fillColor=none;align=left;verticalAlign=middle;spacingTop=-1;spacingLeft=3;spacingRight=3;rotatable=0;labelPosition=right;points=[];portConstraint=eastwest;strokeColor=inherit;" vertex="1" parent="VvGGJhDn4q0LMe5ba3Hn-252">
          <mxGeometry y="200.91304347826087" width="221" height="8" as="geometry" />
        </mxCell>
        <mxCell id="VvGGJhDn4q0LMe5ba3Hn-259" value="+getIsbn() : : String" style="text;strokeColor=none;fillColor=none;align=left;verticalAlign=top;spacingLeft=4;spacingRight=4;overflow=hidden;rotatable=0;points=[[0,0.5],[1,0.5]];portConstraint=eastwest;" vertex="1" parent="VvGGJhDn4q0LMe5ba3Hn-252">
          <mxGeometry y="208.91304347826087" width="221" height="31" as="geometry" />
        </mxCell>
        <mxCell id="VvGGJhDn4q0LMe5ba3Hn-260" value="+getTitle() : : String" style="text;strokeColor=none;fillColor=none;align=left;verticalAlign=top;spacingLeft=4;spacingRight=4;overflow=hidden;rotatable=0;points=[[0,0.5],[1,0.5]];portConstraint=eastwest;" vertex="1" parent="VvGGJhDn4q0LMe5ba3Hn-252">
          <mxGeometry y="239.91304347826087" width="221" height="31" as="geometry" />
        </mxCell>
        <mxCell id="VvGGJhDn4q0LMe5ba3Hn-261" value="+getYear() : : int" style="text;strokeColor=none;fillColor=none;align=left;verticalAlign=top;spacingLeft=4;spacingRight=4;overflow=hidden;rotatable=0;points=[[0,0.5],[1,0.5]];portConstraint=eastwest;" vertex="1" parent="VvGGJhDn4q0LMe5ba3Hn-252">
          <mxGeometry y="270.9130434782609" width="221" height="31" as="geometry" />
        </mxCell>
        <mxCell id="VvGGJhDn4q0LMe5ba3Hn-262" value="+getPrice() : : double" style="text;strokeColor=none;fillColor=none;align=left;verticalAlign=top;spacingLeft=4;spacingRight=4;overflow=hidden;rotatable=0;points=[[0,0.5],[1,0.5]];portConstraint=eastwest;" vertex="1" parent="VvGGJhDn4q0LMe5ba3Hn-252">
          <mxGeometry y="301.9130434782609" width="221" height="31" as="geometry" />
        </mxCell>
        <mxCell id="VvGGJhDn4q0LMe5ba3Hn-263" value="+getAuthor() : : String" style="text;strokeColor=none;fillColor=none;align=left;verticalAlign=top;spacingLeft=4;spacingRight=4;overflow=hidden;rotatable=0;points=[[0,0.5],[1,0.5]];portConstraint=eastwest;" vertex="1" parent="VvGGJhDn4q0LMe5ba3Hn-252">
          <mxGeometry y="332.9130434782609" width="221" height="31" as="geometry" />
        </mxCell>
        <mxCell id="VvGGJhDn4q0LMe5ba3Hn-264" value="PaperBook" style="swimlane;fontStyle=1;align=center;verticalAlign=top;childLayout=stackLayout;horizontal=1;startSize=34.666666666666664;horizontalStack=0;resizeParent=1;resizeParentMax=0;resizeLast=0;collapsible=0;marginBottom=0;" vertex="1" parent="1">
          <mxGeometry x="3525" y="891" width="291" height="217.66666666666666" as="geometry" />
        </mxCell>
        <mxCell id="VvGGJhDn4q0LMe5ba3Hn-265" value="-stock: int" style="text;strokeColor=none;fillColor=none;align=left;verticalAlign=top;spacingLeft=4;spacingRight=4;overflow=hidden;rotatable=0;points=[[0,0.5],[1,0.5]];portConstraint=eastwest;" vertex="1" parent="VvGGJhDn4q0LMe5ba3Hn-264">
          <mxGeometry y="34.666666666666664" width="291" height="35" as="geometry" />
        </mxCell>
        <mxCell id="VvGGJhDn4q0LMe5ba3Hn-266" style="line;strokeWidth=1;fillColor=none;align=left;verticalAlign=middle;spacingTop=-1;spacingLeft=3;spacingRight=3;rotatable=0;labelPosition=right;points=[];portConstraint=eastwest;strokeColor=inherit;" vertex="1" parent="VvGGJhDn4q0LMe5ba3Hn-264">
          <mxGeometry y="69.66666666666666" width="291" height="8" as="geometry" />
        </mxCell>
        <mxCell id="VvGGJhDn4q0LMe5ba3Hn-267" value="+getStock() : : int" style="text;strokeColor=none;fillColor=none;align=left;verticalAlign=top;spacingLeft=4;spacingRight=4;overflow=hidden;rotatable=0;points=[[0,0.5],[1,0.5]];portConstraint=eastwest;" vertex="1" parent="VvGGJhDn4q0LMe5ba3Hn-264">
          <mxGeometry y="77.66666666666666" width="291" height="35" as="geometry" />
        </mxCell>
        <mxCell id="VvGGJhDn4q0LMe5ba3Hn-268" value="+reduceStock(qty: int) : : void" style="text;strokeColor=none;fillColor=none;align=left;verticalAlign=top;spacingLeft=4;spacingRight=4;overflow=hidden;rotatable=0;points=[[0,0.5],[1,0.5]];portConstraint=eastwest;" vertex="1" parent="VvGGJhDn4q0LMe5ba3Hn-264">
          <mxGeometry y="112.66666666666666" width="291" height="35" as="geometry" />
        </mxCell>
        <mxCell id="VvGGJhDn4q0LMe5ba3Hn-269" value="+shipTo(address: String) : : void" style="text;strokeColor=none;fillColor=none;align=left;verticalAlign=top;spacingLeft=4;spacingRight=4;overflow=hidden;rotatable=0;points=[[0,0.5],[1,0.5]];portConstraint=eastwest;" vertex="1" parent="VvGGJhDn4q0LMe5ba3Hn-264">
          <mxGeometry y="147.66666666666666" width="291" height="35" as="geometry" />
        </mxCell>
        <mxCell id="VvGGJhDn4q0LMe5ba3Hn-270" value="+purchase(qty: int) : : void" style="text;strokeColor=none;fillColor=none;align=left;verticalAlign=top;spacingLeft=4;spacingRight=4;overflow=hidden;rotatable=0;points=[[0,0.5],[1,0.5]];portConstraint=eastwest;" vertex="1" parent="VvGGJhDn4q0LMe5ba3Hn-264">
          <mxGeometry y="182.66666666666666" width="291" height="35" as="geometry" />
        </mxCell>
        <mxCell id="VvGGJhDn4q0LMe5ba3Hn-271" value="EBook" style="swimlane;fontStyle=1;align=center;verticalAlign=top;childLayout=stackLayout;horizontal=1;startSize=40;horizontalStack=0;resizeParent=1;resizeParentMax=0;resizeLast=0;collapsible=0;marginBottom=0;" vertex="1" parent="1">
          <mxGeometry x="3535" y="1325" width="271" height="168" as="geometry" />
        </mxCell>
        <mxCell id="VvGGJhDn4q0LMe5ba3Hn-272" value="-fileType: String" style="text;strokeColor=none;fillColor=none;align=left;verticalAlign=top;spacingLeft=4;spacingRight=4;overflow=hidden;rotatable=0;points=[[0,0.5],[1,0.5]];portConstraint=eastwest;" vertex="1" parent="VvGGJhDn4q0LMe5ba3Hn-271">
          <mxGeometry y="40" width="271" height="40" as="geometry" />
        </mxCell>
        <mxCell id="VvGGJhDn4q0LMe5ba3Hn-273" style="line;strokeWidth=1;fillColor=none;align=left;verticalAlign=middle;spacingTop=-1;spacingLeft=3;spacingRight=3;rotatable=0;labelPosition=right;points=[];portConstraint=eastwest;strokeColor=inherit;" vertex="1" parent="VvGGJhDn4q0LMe5ba3Hn-271">
          <mxGeometry y="80" width="271" height="8" as="geometry" />
        </mxCell>
        <mxCell id="VvGGJhDn4q0LMe5ba3Hn-274" value="+emailTo(email: String) : : void" style="text;strokeColor=none;fillColor=none;align=left;verticalAlign=top;spacingLeft=4;spacingRight=4;overflow=hidden;rotatable=0;points=[[0,0.5],[1,0.5]];portConstraint=eastwest;" vertex="1" parent="VvGGJhDn4q0LMe5ba3Hn-271">
          <mxGeometry y="88" width="271" height="40" as="geometry" />
        </mxCell>
        <mxCell id="VvGGJhDn4q0LMe5ba3Hn-275" value="+purchase(qty: int) : : void" style="text;strokeColor=none;fillColor=none;align=left;verticalAlign=top;spacingLeft=4;spacingRight=4;overflow=hidden;rotatable=0;points=[[0,0.5],[1,0.5]];portConstraint=eastwest;" vertex="1" parent="VvGGJhDn4q0LMe5ba3Hn-271">
          <mxGeometry y="128" width="271" height="40" as="geometry" />
        </mxCell>
        <mxCell id="VvGGJhDn4q0LMe5ba3Hn-276" value="DemoBook" style="swimlane;fontStyle=1;align=center;verticalAlign=top;childLayout=stackLayout;horizontal=1;startSize=45.333333333333336;horizontalStack=0;resizeParent=1;resizeParentMax=0;resizeLast=0;collapsible=0;marginBottom=0;" vertex="1" parent="1">
          <mxGeometry x="3578" y="1543" width="183" height="143.33333333333334" as="geometry" />
        </mxCell>
        <mxCell id="VvGGJhDn4q0LMe5ba3Hn-277" value="-year: int" style="text;strokeColor=none;fillColor=none;align=left;verticalAlign=top;spacingLeft=4;spacingRight=4;overflow=hidden;rotatable=0;points=[[0,0.5],[1,0.5]];portConstraint=eastwest;" vertex="1" parent="VvGGJhDn4q0LMe5ba3Hn-276">
          <mxGeometry y="45.333333333333336" width="183" height="45" as="geometry" />
        </mxCell>
        <mxCell id="VvGGJhDn4q0LMe5ba3Hn-278" style="line;strokeWidth=1;fillColor=none;align=left;verticalAlign=middle;spacingTop=-1;spacingLeft=3;spacingRight=3;rotatable=0;labelPosition=right;points=[];portConstraint=eastwest;strokeColor=inherit;" vertex="1" parent="VvGGJhDn4q0LMe5ba3Hn-276">
          <mxGeometry y="90.33333333333334" width="183" height="8" as="geometry" />
        </mxCell>
        <mxCell id="VvGGJhDn4q0LMe5ba3Hn-279" value="+getYear() : : int" style="text;strokeColor=none;fillColor=none;align=left;verticalAlign=top;spacingLeft=4;spacingRight=4;overflow=hidden;rotatable=0;points=[[0,0.5],[1,0.5]];portConstraint=eastwest;" vertex="1" parent="VvGGJhDn4q0LMe5ba3Hn-276">
          <mxGeometry y="98.33333333333334" width="183" height="45" as="geometry" />
        </mxCell>
        <mxCell id="VvGGJhDn4q0LMe5ba3Hn-280" value="&lt;&lt;interface&gt;&gt;&#xa;IBookFactory" style="swimlane;fontStyle=1;align=center;verticalAlign=top;childLayout=stackLayout;horizontal=1;startSize=71;horizontalStack=0;resizeParent=1;resizeParentMax=0;resizeLast=0;collapsible=0;marginBottom=0;" vertex="1" parent="1">
          <mxGeometry x="1357" y="713" width="762" height="126" as="geometry" />
        </mxCell>
        <mxCell id="VvGGJhDn4q0LMe5ba3Hn-281" style="line;strokeWidth=1;fillColor=none;align=left;verticalAlign=middle;spacingTop=-1;spacingLeft=3;spacingRight=3;rotatable=0;labelPosition=right;points=[];portConstraint=eastwest;strokeColor=inherit;" vertex="1" parent="VvGGJhDn4q0LMe5ba3Hn-280">
          <mxGeometry y="71" width="762" height="8" as="geometry" />
        </mxCell>
        <mxCell id="VvGGJhDn4q0LMe5ba3Hn-282" value="+create(type: String, isbn: String, title: String, year: int, price: double, author: String) : : IBook" style="text;strokeColor=none;fillColor=none;align=left;verticalAlign=top;spacingLeft=4;spacingRight=4;overflow=hidden;rotatable=0;points=[[0,0.5],[1,0.5]];portConstraint=eastwest;" vertex="1" parent="VvGGJhDn4q0LMe5ba3Hn-280">
          <mxGeometry y="79" width="762" height="47" as="geometry" />
        </mxCell>
        <mxCell id="VvGGJhDn4q0LMe5ba3Hn-283" value="BookFactory" style="swimlane;fontStyle=1;align=center;verticalAlign=top;childLayout=stackLayout;horizontal=1;startSize=40;horizontalStack=0;resizeParent=1;resizeParentMax=0;resizeLast=0;collapsible=0;marginBottom=0;" vertex="1" parent="1">
          <mxGeometry x="2169" y="814" width="760" height="168" as="geometry" />
        </mxCell>
        <mxCell id="VvGGJhDn4q0LMe5ba3Hn-284" value="-registry: Map&lt;String, Function&gt;" style="text;strokeColor=none;fillColor=none;align=left;verticalAlign=top;spacingLeft=4;spacingRight=4;overflow=hidden;rotatable=0;points=[[0,0.5],[1,0.5]];portConstraint=eastwest;" vertex="1" parent="VvGGJhDn4q0LMe5ba3Hn-283">
          <mxGeometry y="40" width="760" height="40" as="geometry" />
        </mxCell>
        <mxCell id="VvGGJhDn4q0LMe5ba3Hn-285" style="line;strokeWidth=1;fillColor=none;align=left;verticalAlign=middle;spacingTop=-1;spacingLeft=3;spacingRight=3;rotatable=0;labelPosition=right;points=[];portConstraint=eastwest;strokeColor=inherit;" vertex="1" parent="VvGGJhDn4q0LMe5ba3Hn-283">
          <mxGeometry y="80" width="760" height="8" as="geometry" />
        </mxCell>
        <mxCell id="VvGGJhDn4q0LMe5ba3Hn-286" value="+register(type: String, ctor: Function) : : void" style="text;strokeColor=none;fillColor=none;align=left;verticalAlign=top;spacingLeft=4;spacingRight=4;overflow=hidden;rotatable=0;points=[[0,0.5],[1,0.5]];portConstraint=eastwest;" vertex="1" parent="VvGGJhDn4q0LMe5ba3Hn-283">
          <mxGeometry y="88" width="760" height="40" as="geometry" />
        </mxCell>
        <mxCell id="VvGGJhDn4q0LMe5ba3Hn-287" value="+create(type: String, isbn: String, title: String, year: int, price: double, author: String) : : IBook" style="text;strokeColor=none;fillColor=none;align=left;verticalAlign=top;spacingLeft=4;spacingRight=4;overflow=hidden;rotatable=0;points=[[0,0.5],[1,0.5]];portConstraint=eastwest;" vertex="1" parent="VvGGJhDn4q0LMe5ba3Hn-283">
          <mxGeometry y="128" width="760" height="40" as="geometry" />
        </mxCell>
        <mxCell id="VvGGJhDn4q0LMe5ba3Hn-288" value="&lt;&lt;interface&gt;&gt;&#xa;IBookRepository" style="swimlane;fontStyle=1;align=center;verticalAlign=top;childLayout=stackLayout;horizontal=1;startSize=51;horizontalStack=0;resizeParent=1;resizeParentMax=0;resizeLast=0;collapsible=0;marginBottom=0;" vertex="1" parent="1">
          <mxGeometry x="1520" y="1065" width="437" height="229" as="geometry" />
        </mxCell>
        <mxCell id="VvGGJhDn4q0LMe5ba3Hn-289" style="line;strokeWidth=1;fillColor=none;align=left;verticalAlign=middle;spacingTop=-1;spacingLeft=3;spacingRight=3;rotatable=0;labelPosition=right;points=[];portConstraint=eastwest;strokeColor=inherit;" vertex="1" parent="VvGGJhDn4q0LMe5ba3Hn-288">
          <mxGeometry y="51" width="437" height="8" as="geometry" />
        </mxCell>
        <mxCell id="VvGGJhDn4q0LMe5ba3Hn-290" value="+addBook(book: IBook, qty: int) : : void" style="text;strokeColor=none;fillColor=none;align=left;verticalAlign=top;spacingLeft=4;spacingRight=4;overflow=hidden;rotatable=0;points=[[0,0.5],[1,0.5]];portConstraint=eastwest;" vertex="1" parent="VvGGJhDn4q0LMe5ba3Hn-288">
          <mxGeometry y="59" width="437" height="34" as="geometry" />
        </mxCell>
        <mxCell id="VvGGJhDn4q0LMe5ba3Hn-291" value="+removeOutdated(cutoffYear: int) : : List&lt;IBook&gt;" style="text;strokeColor=none;fillColor=none;align=left;verticalAlign=top;spacingLeft=4;spacingRight=4;overflow=hidden;rotatable=0;points=[[0,0.5],[1,0.5]];portConstraint=eastwest;" vertex="1" parent="VvGGJhDn4q0LMe5ba3Hn-288">
          <mxGeometry y="93" width="437" height="34" as="geometry" />
        </mxCell>
        <mxCell id="VvGGJhDn4q0LMe5ba3Hn-292" value="+findByIsbn(isbn: String) : : IBook" style="text;strokeColor=none;fillColor=none;align=left;verticalAlign=top;spacingLeft=4;spacingRight=4;overflow=hidden;rotatable=0;points=[[0,0.5],[1,0.5]];portConstraint=eastwest;" vertex="1" parent="VvGGJhDn4q0LMe5ba3Hn-288">
          <mxGeometry y="127" width="437" height="34" as="geometry" />
        </mxCell>
        <mxCell id="VvGGJhDn4q0LMe5ba3Hn-293" value="+getStock(isbn: String) : : int" style="text;strokeColor=none;fillColor=none;align=left;verticalAlign=top;spacingLeft=4;spacingRight=4;overflow=hidden;rotatable=0;points=[[0,0.5],[1,0.5]];portConstraint=eastwest;" vertex="1" parent="VvGGJhDn4q0LMe5ba3Hn-288">
          <mxGeometry y="161" width="437" height="34" as="geometry" />
        </mxCell>
        <mxCell id="VvGGJhDn4q0LMe5ba3Hn-294" value="+reduceStock(isbn: String, qty: int) : : void" style="text;strokeColor=none;fillColor=none;align=left;verticalAlign=top;spacingLeft=4;spacingRight=4;overflow=hidden;rotatable=0;points=[[0,0.5],[1,0.5]];portConstraint=eastwest;" vertex="1" parent="VvGGJhDn4q0LMe5ba3Hn-288">
          <mxGeometry y="195" width="437" height="34" as="geometry" />
        </mxCell>
        <mxCell id="VvGGJhDn4q0LMe5ba3Hn-295" value="Inventory" style="swimlane;fontStyle=1;align=center;verticalAlign=top;childLayout=stackLayout;horizontal=1;startSize=32;horizontalStack=0;resizeParent=1;resizeParentMax=0;resizeLast=0;collapsible=0;marginBottom=0;" vertex="1" parent="1">
          <mxGeometry x="2343" y="1032" width="412" height="264" as="geometry" />
        </mxCell>
        <mxCell id="VvGGJhDn4q0LMe5ba3Hn-296" value="-bookMap: Map&lt;String, IBook&gt;" style="text;strokeColor=none;fillColor=none;align=left;verticalAlign=top;spacingLeft=4;spacingRight=4;overflow=hidden;rotatable=0;points=[[0,0.5],[1,0.5]];portConstraint=eastwest;" vertex="1" parent="VvGGJhDn4q0LMe5ba3Hn-295">
          <mxGeometry y="32" width="412" height="32" as="geometry" />
        </mxCell>
        <mxCell id="VvGGJhDn4q0LMe5ba3Hn-297" value="-stockMap: Map&lt;String, int&gt;" style="text;strokeColor=none;fillColor=none;align=left;verticalAlign=top;spacingLeft=4;spacingRight=4;overflow=hidden;rotatable=0;points=[[0,0.5],[1,0.5]];portConstraint=eastwest;" vertex="1" parent="VvGGJhDn4q0LMe5ba3Hn-295">
          <mxGeometry y="64" width="412" height="32" as="geometry" />
        </mxCell>
        <mxCell id="VvGGJhDn4q0LMe5ba3Hn-298" style="line;strokeWidth=1;fillColor=none;align=left;verticalAlign=middle;spacingTop=-1;spacingLeft=3;spacingRight=3;rotatable=0;labelPosition=right;points=[];portConstraint=eastwest;strokeColor=inherit;" vertex="1" parent="VvGGJhDn4q0LMe5ba3Hn-295">
          <mxGeometry y="96" width="412" height="8" as="geometry" />
        </mxCell>
        <mxCell id="VvGGJhDn4q0LMe5ba3Hn-299" value="+addBook(book: IBook, qty: int) : : void" style="text;strokeColor=none;fillColor=none;align=left;verticalAlign=top;spacingLeft=4;spacingRight=4;overflow=hidden;rotatable=0;points=[[0,0.5],[1,0.5]];portConstraint=eastwest;" vertex="1" parent="VvGGJhDn4q0LMe5ba3Hn-295">
          <mxGeometry y="104" width="412" height="32" as="geometry" />
        </mxCell>
        <mxCell id="VvGGJhDn4q0LMe5ba3Hn-300" value="+removeOutdated(cutoffYear: int) : : List&lt;IBook&gt;" style="text;strokeColor=none;fillColor=none;align=left;verticalAlign=top;spacingLeft=4;spacingRight=4;overflow=hidden;rotatable=0;points=[[0,0.5],[1,0.5]];portConstraint=eastwest;" vertex="1" parent="VvGGJhDn4q0LMe5ba3Hn-295">
          <mxGeometry y="136" width="412" height="32" as="geometry" />
        </mxCell>
        <mxCell id="VvGGJhDn4q0LMe5ba3Hn-301" value="+findByIsbn(isbn: String) : : IBook" style="text;strokeColor=none;fillColor=none;align=left;verticalAlign=top;spacingLeft=4;spacingRight=4;overflow=hidden;rotatable=0;points=[[0,0.5],[1,0.5]];portConstraint=eastwest;" vertex="1" parent="VvGGJhDn4q0LMe5ba3Hn-295">
          <mxGeometry y="168" width="412" height="32" as="geometry" />
        </mxCell>
        <mxCell id="VvGGJhDn4q0LMe5ba3Hn-302" value="+getStock(isbn: String) : : int" style="text;strokeColor=none;fillColor=none;align=left;verticalAlign=top;spacingLeft=4;spacingRight=4;overflow=hidden;rotatable=0;points=[[0,0.5],[1,0.5]];portConstraint=eastwest;" vertex="1" parent="VvGGJhDn4q0LMe5ba3Hn-295">
          <mxGeometry y="200" width="412" height="32" as="geometry" />
        </mxCell>
        <mxCell id="VvGGJhDn4q0LMe5ba3Hn-303" value="+reduceStock(isbn: String, qty: int) : : void" style="text;strokeColor=none;fillColor=none;align=left;verticalAlign=top;spacingLeft=4;spacingRight=4;overflow=hidden;rotatable=0;points=[[0,0.5],[1,0.5]];portConstraint=eastwest;" vertex="1" parent="VvGGJhDn4q0LMe5ba3Hn-295">
          <mxGeometry y="232" width="412" height="32" as="geometry" />
        </mxCell>
        <mxCell id="VvGGJhDn4q0LMe5ba3Hn-304" value="ShippingService" style="swimlane;fontStyle=1;align=center;verticalAlign=top;childLayout=stackLayout;horizontal=1;startSize=47.2;horizontalStack=0;resizeParent=1;resizeParentMax=0;resizeLast=0;collapsible=0;marginBottom=0;" vertex="1" parent="1">
          <mxGeometry x="2355" y="1385" width="389" height="102.2" as="geometry" />
        </mxCell>
        <mxCell id="VvGGJhDn4q0LMe5ba3Hn-305" style="line;strokeWidth=1;fillColor=none;align=left;verticalAlign=middle;spacingTop=-1;spacingLeft=3;spacingRight=3;rotatable=0;labelPosition=right;points=[];portConstraint=eastwest;strokeColor=inherit;" vertex="1" parent="VvGGJhDn4q0LMe5ba3Hn-304">
          <mxGeometry y="47.2" width="389" height="8" as="geometry" />
        </mxCell>
        <mxCell id="VvGGJhDn4q0LMe5ba3Hn-306" value="+ship(book: IBook, address: String) : : void" style="text;strokeColor=none;fillColor=none;align=left;verticalAlign=top;spacingLeft=4;spacingRight=4;overflow=hidden;rotatable=0;points=[[0,0.5],[1,0.5]];portConstraint=eastwest;" vertex="1" parent="VvGGJhDn4q0LMe5ba3Hn-304">
          <mxGeometry y="55.2" width="389" height="47" as="geometry" />
        </mxCell>
        <mxCell id="VvGGJhDn4q0LMe5ba3Hn-307" value="MailService" style="swimlane;fontStyle=1;align=center;verticalAlign=top;childLayout=stackLayout;horizontal=1;startSize=47.2;horizontalStack=0;resizeParent=1;resizeParentMax=0;resizeLast=0;collapsible=0;marginBottom=0;" vertex="1" parent="1">
          <mxGeometry x="2368" y="1561" width="362" height="102.2" as="geometry" />
        </mxCell>
        <mxCell id="VvGGJhDn4q0LMe5ba3Hn-308" style="line;strokeWidth=1;fillColor=none;align=left;verticalAlign=middle;spacingTop=-1;spacingLeft=3;spacingRight=3;rotatable=0;labelPosition=right;points=[];portConstraint=eastwest;strokeColor=inherit;" vertex="1" parent="VvGGJhDn4q0LMe5ba3Hn-307">
          <mxGeometry y="47.2" width="362" height="8" as="geometry" />
        </mxCell>
        <mxCell id="VvGGJhDn4q0LMe5ba3Hn-309" value="+send(book: IBook, email: String) : : void" style="text;strokeColor=none;fillColor=none;align=left;verticalAlign=top;spacingLeft=4;spacingRight=4;overflow=hidden;rotatable=0;points=[[0,0.5],[1,0.5]];portConstraint=eastwest;" vertex="1" parent="VvGGJhDn4q0LMe5ba3Hn-307">
          <mxGeometry y="55.2" width="362" height="47" as="geometry" />
        </mxCell>
        <mxCell id="VvGGJhDn4q0LMe5ba3Hn-310" value="&lt;&lt;interface&gt;&gt;&#xa;IOrderService" style="swimlane;fontStyle=1;align=center;verticalAlign=top;childLayout=stackLayout;horizontal=1;startSize=71;horizontalStack=0;resizeParent=1;resizeParentMax=0;resizeLast=0;collapsible=0;marginBottom=0;" vertex="1" parent="1">
          <mxGeometry x="30" y="1442" width="561" height="126" as="geometry" />
        </mxCell>
        <mxCell id="VvGGJhDn4q0LMe5ba3Hn-311" style="line;strokeWidth=1;fillColor=none;align=left;verticalAlign=middle;spacingTop=-1;spacingLeft=3;spacingRight=3;rotatable=0;labelPosition=right;points=[];portConstraint=eastwest;strokeColor=inherit;" vertex="1" parent="VvGGJhDn4q0LMe5ba3Hn-310">
          <mxGeometry y="71" width="561" height="8" as="geometry" />
        </mxCell>
        <mxCell id="VvGGJhDn4q0LMe5ba3Hn-312" value="+buy(isbn: String, qty: int, email: String, address: String) : : double" style="text;strokeColor=none;fillColor=none;align=left;verticalAlign=top;spacingLeft=4;spacingRight=4;overflow=hidden;rotatable=0;points=[[0,0.5],[1,0.5]];portConstraint=eastwest;" vertex="1" parent="VvGGJhDn4q0LMe5ba3Hn-310">
          <mxGeometry y="79" width="561" height="47" as="geometry" />
        </mxCell>
        <mxCell id="VvGGJhDn4q0LMe5ba3Hn-313" value="OrderService" style="swimlane;fontStyle=1;align=center;verticalAlign=top;childLayout=stackLayout;horizontal=1;startSize=34.666666666666664;horizontalStack=0;resizeParent=1;resizeParentMax=0;resizeLast=0;collapsible=0;marginBottom=0;" vertex="1" parent="1">
          <mxGeometry x="641" y="1409" width="666" height="217.66666666666666" as="geometry" />
        </mxCell>
        <mxCell id="VvGGJhDn4q0LMe5ba3Hn-314" value="-repo: IBookRepository" style="text;strokeColor=none;fillColor=none;align=left;verticalAlign=top;spacingLeft=4;spacingRight=4;overflow=hidden;rotatable=0;points=[[0,0.5],[1,0.5]];portConstraint=eastwest;" vertex="1" parent="VvGGJhDn4q0LMe5ba3Hn-313">
          <mxGeometry y="34.666666666666664" width="666" height="35" as="geometry" />
        </mxCell>
        <mxCell id="VvGGJhDn4q0LMe5ba3Hn-315" value="-shippingService: ShippingService" style="text;strokeColor=none;fillColor=none;align=left;verticalAlign=top;spacingLeft=4;spacingRight=4;overflow=hidden;rotatable=0;points=[[0,0.5],[1,0.5]];portConstraint=eastwest;" vertex="1" parent="VvGGJhDn4q0LMe5ba3Hn-313">
          <mxGeometry y="69.66666666666666" width="666" height="35" as="geometry" />
        </mxCell>
        <mxCell id="VvGGJhDn4q0LMe5ba3Hn-316" value="-mailService: MailService" style="text;strokeColor=none;fillColor=none;align=left;verticalAlign=top;spacingLeft=4;spacingRight=4;overflow=hidden;rotatable=0;points=[[0,0.5],[1,0.5]];portConstraint=eastwest;" vertex="1" parent="VvGGJhDn4q0LMe5ba3Hn-313">
          <mxGeometry y="104.66666666666666" width="666" height="35" as="geometry" />
        </mxCell>
        <mxCell id="VvGGJhDn4q0LMe5ba3Hn-317" style="line;strokeWidth=1;fillColor=none;align=left;verticalAlign=middle;spacingTop=-1;spacingLeft=3;spacingRight=3;rotatable=0;labelPosition=right;points=[];portConstraint=eastwest;strokeColor=inherit;" vertex="1" parent="VvGGJhDn4q0LMe5ba3Hn-313">
          <mxGeometry y="139.66666666666666" width="666" height="8" as="geometry" />
        </mxCell>
        <mxCell id="VvGGJhDn4q0LMe5ba3Hn-318" value="+OrderService(repo: IBookRepository, shipping: ShippingService, mail: MailService)" style="text;strokeColor=none;fillColor=none;align=left;verticalAlign=top;spacingLeft=4;spacingRight=4;overflow=hidden;rotatable=0;points=[[0,0.5],[1,0.5]];portConstraint=eastwest;" vertex="1" parent="VvGGJhDn4q0LMe5ba3Hn-313">
          <mxGeometry y="147.66666666666666" width="666" height="35" as="geometry" />
        </mxCell>
        <mxCell id="VvGGJhDn4q0LMe5ba3Hn-319" value="+buy(isbn: String, qty: int, email: String, address: String) : : double" style="text;strokeColor=none;fillColor=none;align=left;verticalAlign=top;spacingLeft=4;spacingRight=4;overflow=hidden;rotatable=0;points=[[0,0.5],[1,0.5]];portConstraint=eastwest;" vertex="1" parent="VvGGJhDn4q0LMe5ba3Hn-313">
          <mxGeometry y="182.66666666666666" width="666" height="35" as="geometry" />
        </mxCell>
        <mxCell id="VvGGJhDn4q0LMe5ba3Hn-320" value="BookstoreTest" style="swimlane;fontStyle=1;align=center;verticalAlign=top;childLayout=stackLayout;horizontal=1;startSize=36.888888888888886;horizontalStack=0;resizeParent=1;resizeParentMax=0;resizeLast=0;collapsible=0;marginBottom=0;" vertex="1" parent="1">
          <mxGeometry x="161" y="892" width="300" height="229.88888888888889" as="geometry" />
        </mxCell>
        <mxCell id="VvGGJhDn4q0LMe5ba3Hn-321" style="line;strokeWidth=1;fillColor=none;align=left;verticalAlign=middle;spacingTop=-1;spacingLeft=3;spacingRight=3;rotatable=0;labelPosition=right;points=[];portConstraint=eastwest;strokeColor=inherit;" vertex="1" parent="VvGGJhDn4q0LMe5ba3Hn-320">
          <mxGeometry y="36.888888888888886" width="300" height="8" as="geometry" />
        </mxCell>
        <mxCell id="VvGGJhDn4q0LMe5ba3Hn-322" value="+main(args: String[]) : : void" style="text;strokeColor=none;fillColor=none;align=left;verticalAlign=top;spacingLeft=4;spacingRight=4;overflow=hidden;rotatable=0;points=[[0,0.5],[1,0.5]];portConstraint=eastwest;" vertex="1" parent="VvGGJhDn4q0LMe5ba3Hn-320">
          <mxGeometry y="44.888888888888886" width="300" height="37" as="geometry" />
        </mxCell>
        <mxCell id="VvGGJhDn4q0LMe5ba3Hn-323" value="-testAddAndRemoveOutdated() : : void" style="text;strokeColor=none;fillColor=none;align=left;verticalAlign=top;spacingLeft=4;spacingRight=4;overflow=hidden;rotatable=0;points=[[0,0.5],[1,0.5]];portConstraint=eastwest;" vertex="1" parent="VvGGJhDn4q0LMe5ba3Hn-320">
          <mxGeometry y="81.88888888888889" width="300" height="37" as="geometry" />
        </mxCell>
        <mxCell id="VvGGJhDn4q0LMe5ba3Hn-324" value="-testBuyPaperBook() : : void" style="text;strokeColor=none;fillColor=none;align=left;verticalAlign=top;spacingLeft=4;spacingRight=4;overflow=hidden;rotatable=0;points=[[0,0.5],[1,0.5]];portConstraint=eastwest;" vertex="1" parent="VvGGJhDn4q0LMe5ba3Hn-320">
          <mxGeometry y="118.88888888888889" width="300" height="37" as="geometry" />
        </mxCell>
        <mxCell id="VvGGJhDn4q0LMe5ba3Hn-350" value="-testBuyEBook() : : void" style="text;strokeColor=none;fillColor=none;align=left;verticalAlign=top;spacingLeft=4;spacingRight=4;overflow=hidden;rotatable=0;points=[[0,0.5],[1,0.5]];portConstraint=eastwest;" vertex="1" parent="VvGGJhDn4q0LMe5ba3Hn-320">
          <mxGeometry y="155.88888888888889" width="300" height="37" as="geometry" />
        </mxCell>
        <mxCell id="VvGGJhDn4q0LMe5ba3Hn-349" value="-testBuyInsufficientStock() : : void" style="text;strokeColor=none;fillColor=none;align=left;verticalAlign=top;spacingLeft=4;spacingRight=4;overflow=hidden;rotatable=0;points=[[0,0.5],[1,0.5]];portConstraint=eastwest;" vertex="1" parent="VvGGJhDn4q0LMe5ba3Hn-320">
          <mxGeometry y="192.88888888888889" width="300" height="37" as="geometry" />
        </mxCell>
        <mxCell id="VvGGJhDn4q0LMe5ba3Hn-325" value="" style="curved=1;dashed=1;startArrow=block;startSize=16;startFill=0;endArrow=none;exitX=1;exitY=0.5;entryX=0;entryY=0.5;rounded=0;" edge="1" parent="1" source="VvGGJhDn4q0LMe5ba3Hn-232" target="VvGGJhDn4q0LMe5ba3Hn-252">
          <mxGeometry relative="1" as="geometry">
            <Array as="points" />
          </mxGeometry>
        </mxCell>
        <mxCell id="VvGGJhDn4q0LMe5ba3Hn-326" value="" style="curved=1;startArrow=block;startSize=16;startFill=0;endArrow=none;exitX=0.79;exitY=0;entryX=0;entryY=0.5;rounded=0;" edge="1" parent="1" source="VvGGJhDn4q0LMe5ba3Hn-252" target="VvGGJhDn4q0LMe5ba3Hn-264">
          <mxGeometry relative="1" as="geometry">
            <Array as="points">
              <mxPoint x="3500" y="999" />
            </Array>
          </mxGeometry>
        </mxCell>
        <mxCell id="VvGGJhDn4q0LMe5ba3Hn-327" value="" style="curved=1;startArrow=block;startSize=16;startFill=0;endArrow=none;exitX=1;exitY=0.58;entryX=0;entryY=0.5;rounded=0;" edge="1" parent="1" source="VvGGJhDn4q0LMe5ba3Hn-252" target="VvGGJhDn4q0LMe5ba3Hn-271">
          <mxGeometry relative="1" as="geometry">
            <Array as="points">
              <mxPoint x="3500" y="1409" />
            </Array>
          </mxGeometry>
        </mxCell>
        <mxCell id="VvGGJhDn4q0LMe5ba3Hn-328" value="" style="curved=1;startArrow=block;startSize=16;startFill=0;endArrow=none;exitX=0.96;exitY=1;entryX=0;entryY=0.5;rounded=0;" edge="1" parent="1" source="VvGGJhDn4q0LMe5ba3Hn-252" target="VvGGJhDn4q0LMe5ba3Hn-276">
          <mxGeometry relative="1" as="geometry">
            <Array as="points">
              <mxPoint x="3500" y="1615" />
            </Array>
          </mxGeometry>
        </mxCell>
        <mxCell id="VvGGJhDn4q0LMe5ba3Hn-329" value="" style="curved=1;dashed=1;startArrow=none;endArrow=block;endSize=16;endFill=0;exitX=0.8;exitY=0;entryX=0;entryY=0.5;rounded=0;" edge="1" parent="1" source="VvGGJhDn4q0LMe5ba3Hn-264" target="VvGGJhDn4q0LMe5ba3Hn-239">
          <mxGeometry relative="1" as="geometry">
            <Array as="points">
              <mxPoint x="3840" y="787" />
            </Array>
          </mxGeometry>
        </mxCell>
        <mxCell id="VvGGJhDn4q0LMe5ba3Hn-330" value="" style="curved=1;dashed=1;startArrow=none;endArrow=block;endSize=16;endFill=0;exitX=1;exitY=0.5;entryX=0;entryY=0.5;rounded=0;" edge="1" parent="1" source="VvGGJhDn4q0LMe5ba3Hn-264" target="VvGGJhDn4q0LMe5ba3Hn-243">
          <mxGeometry relative="1" as="geometry">
            <Array as="points" />
          </mxGeometry>
        </mxCell>
        <mxCell id="VvGGJhDn4q0LMe5ba3Hn-331" value="" style="curved=1;dashed=1;startArrow=none;endArrow=block;endSize=16;endFill=0;exitX=0.8;exitY=1;entryX=0.24;entryY=0;rounded=0;" edge="1" parent="1" source="VvGGJhDn4q0LMe5ba3Hn-264" target="VvGGJhDn4q0LMe5ba3Hn-249">
          <mxGeometry relative="1" as="geometry">
            <Array as="points">
              <mxPoint x="3840" y="1209" />
            </Array>
          </mxGeometry>
        </mxCell>
        <mxCell id="VvGGJhDn4q0LMe5ba3Hn-332" value="" style="curved=1;dashed=1;startArrow=none;endArrow=block;endSize=16;endFill=0;exitX=1;exitY=0.03;entryX=0.1;entryY=1;rounded=0;" edge="1" parent="1" source="VvGGJhDn4q0LMe5ba3Hn-271" target="VvGGJhDn4q0LMe5ba3Hn-246">
          <mxGeometry relative="1" as="geometry">
            <Array as="points">
              <mxPoint x="3840" y="1309" />
            </Array>
          </mxGeometry>
        </mxCell>
        <mxCell id="VvGGJhDn4q0LMe5ba3Hn-333" value="" style="curved=1;dashed=1;startArrow=none;endArrow=block;endSize=16;endFill=0;exitX=1;exitY=0.55;entryX=0;entryY=0.6;rounded=0;" edge="1" parent="1" source="VvGGJhDn4q0LMe5ba3Hn-271" target="VvGGJhDn4q0LMe5ba3Hn-249">
          <mxGeometry relative="1" as="geometry">
            <Array as="points">
              <mxPoint x="3840" y="1419" />
            </Array>
          </mxGeometry>
        </mxCell>
        <mxCell id="VvGGJhDn4q0LMe5ba3Hn-334" value="" style="curved=1;dashed=1;startArrow=block;startSize=16;startFill=0;endArrow=none;exitX=1;exitY=0.5;entryX=0.09;entryY=0;rounded=0;" edge="1" parent="1" source="VvGGJhDn4q0LMe5ba3Hn-280" target="VvGGJhDn4q0LMe5ba3Hn-283">
          <mxGeometry relative="1" as="geometry">
            <Array as="points">
              <mxPoint x="2144" y="788" />
            </Array>
          </mxGeometry>
        </mxCell>
        <mxCell id="VvGGJhDn4q0LMe5ba3Hn-335" value="" style="curved=1;dashed=1;startArrow=none;endArrow=open;endSize=12;exitX=1;exitY=0.5;entryX=0.34;entryY=0;rounded=0;" edge="1" parent="1" source="VvGGJhDn4q0LMe5ba3Hn-283" target="VvGGJhDn4q0LMe5ba3Hn-232">
          <mxGeometry relative="1" as="geometry">
            <Array as="points">
              <mxPoint x="2954" y="898" />
            </Array>
          </mxGeometry>
        </mxCell>
        <mxCell id="VvGGJhDn4q0LMe5ba3Hn-336" value="" style="curved=1;dashed=1;startArrow=block;startSize=16;startFill=0;endArrow=none;exitX=1;exitY=0.5;entryX=0;entryY=0.54;rounded=0;" edge="1" parent="1" source="VvGGJhDn4q0LMe5ba3Hn-288" target="VvGGJhDn4q0LMe5ba3Hn-295">
          <mxGeometry relative="1" as="geometry">
            <Array as="points">
              <mxPoint x="2144" y="1188" />
            </Array>
          </mxGeometry>
        </mxCell>
        <mxCell id="VvGGJhDn4q0LMe5ba3Hn-337" value="" style="curved=1;startArrow=diamondThin;startSize=14;startFill=0;endArrow=none;exitX=1;exitY=0.5;entryX=0.15;entryY=0;rounded=0;" edge="1" parent="1" source="VvGGJhDn4q0LMe5ba3Hn-295" target="VvGGJhDn4q0LMe5ba3Hn-232">
          <mxGeometry relative="1" as="geometry">
            <Array as="points">
              <mxPoint x="2954" y="1164" />
            </Array>
          </mxGeometry>
        </mxCell>
        <mxCell id="VvGGJhDn4q0LMe5ba3Hn-338" value="" style="curved=1;dashed=1;startArrow=none;endArrow=open;endSize=12;exitX=1;exitY=0.5;entryX=0;entryY=0.74;rounded=0;" edge="1" parent="1" source="VvGGJhDn4q0LMe5ba3Hn-304" target="VvGGJhDn4q0LMe5ba3Hn-232">
          <mxGeometry relative="1" as="geometry">
            <Array as="points">
              <mxPoint x="2954" y="1448" />
            </Array>
          </mxGeometry>
        </mxCell>
        <mxCell id="VvGGJhDn4q0LMe5ba3Hn-339" value="" style="curved=1;dashed=1;startArrow=none;endArrow=open;endSize=12;exitX=1;exitY=0.5;entryX=0.2;entryY=1;rounded=0;" edge="1" parent="1" source="VvGGJhDn4q0LMe5ba3Hn-307" target="VvGGJhDn4q0LMe5ba3Hn-232">
          <mxGeometry relative="1" as="geometry">
            <Array as="points">
              <mxPoint x="2954" y="1624" />
            </Array>
          </mxGeometry>
        </mxCell>
        <mxCell id="VvGGJhDn4q0LMe5ba3Hn-340" value="" style="curved=1;dashed=1;startArrow=block;startSize=16;startFill=0;endArrow=none;exitX=1;exitY=0.5;entryX=0;entryY=0.5;rounded=0;" edge="1" parent="1" source="VvGGJhDn4q0LMe5ba3Hn-310" target="VvGGJhDn4q0LMe5ba3Hn-313">
          <mxGeometry relative="1" as="geometry">
            <Array as="points" />
          </mxGeometry>
        </mxCell>
        <mxCell id="VvGGJhDn4q0LMe5ba3Hn-341" value="" style="curved=1;startArrow=none;endArrow=open;endSize=12;exitX=0.68;exitY=0;entryX=0;entryY=0.5;rounded=0;" edge="1" parent="1" source="VvGGJhDn4q0LMe5ba3Hn-313" target="VvGGJhDn4q0LMe5ba3Hn-288">
          <mxGeometry relative="1" as="geometry">
            <Array as="points">
              <mxPoint x="1332" y="1188" />
            </Array>
          </mxGeometry>
        </mxCell>
        <mxCell id="VvGGJhDn4q0LMe5ba3Hn-342" value="" style="curved=1;dashed=1;startArrow=none;endArrow=open;endSize=12;exitX=0.85;exitY=0;entryX=0;entryY=0.42;rounded=0;" edge="1" parent="1" source="VvGGJhDn4q0LMe5ba3Hn-313" target="VvGGJhDn4q0LMe5ba3Hn-232">
          <mxGeometry relative="1" as="geometry">
            <Array as="points">
              <mxPoint x="1332" y="1350" />
              <mxPoint x="2954" y="1350" />
            </Array>
          </mxGeometry>
        </mxCell>
        <mxCell id="VvGGJhDn4q0LMe5ba3Hn-343" value="" style="curved=1;startArrow=none;endArrow=open;endSize=12;exitX=1;exitY=0.2;entryX=0;entryY=0.5;rounded=0;" edge="1" parent="1" source="VvGGJhDn4q0LMe5ba3Hn-313" target="VvGGJhDn4q0LMe5ba3Hn-304">
          <mxGeometry relative="1" as="geometry">
            <Array as="points">
              <mxPoint x="1332" y="1448" />
            </Array>
          </mxGeometry>
        </mxCell>
        <mxCell id="VvGGJhDn4q0LMe5ba3Hn-344" value="" style="curved=1;startArrow=none;endArrow=open;endSize=12;exitX=1;exitY=0.96;entryX=0;entryY=0.5;rounded=0;" edge="1" parent="1" source="VvGGJhDn4q0LMe5ba3Hn-313" target="VvGGJhDn4q0LMe5ba3Hn-307">
          <mxGeometry relative="1" as="geometry">
            <Array as="points">
              <mxPoint x="1332" y="1624" />
            </Array>
          </mxGeometry>
        </mxCell>
        <mxCell id="VvGGJhDn4q0LMe5ba3Hn-345" value="" style="curved=1;dashed=1;startArrow=none;endArrow=open;endSize=12;exitX=1;exitY=0.44;entryX=0;entryY=0.84;rounded=0;" edge="1" parent="1" source="VvGGJhDn4q0LMe5ba3Hn-320" target="VvGGJhDn4q0LMe5ba3Hn-283">
          <mxGeometry relative="1" as="geometry">
            <Array as="points">
              <mxPoint x="616" y="959" />
              <mxPoint x="2144" y="959" />
            </Array>
          </mxGeometry>
        </mxCell>
        <mxCell id="VvGGJhDn4q0LMe5ba3Hn-346" value="" style="curved=1;dashed=1;startArrow=none;endArrow=open;endSize=12;exitX=1;exitY=0.52;entryX=0;entryY=0.15;rounded=0;" edge="1" parent="1" source="VvGGJhDn4q0LMe5ba3Hn-320" target="VvGGJhDn4q0LMe5ba3Hn-295">
          <mxGeometry relative="1" as="geometry">
            <Array as="points">
              <mxPoint x="616" y="986" />
              <mxPoint x="2144" y="986" />
            </Array>
          </mxGeometry>
        </mxCell>
        <mxCell id="VvGGJhDn4q0LMe5ba3Hn-347" value="" style="curved=1;dashed=1;startArrow=none;endArrow=open;endSize=12;exitX=1;exitY=0.77;entryX=0.37;entryY=0;rounded=0;" edge="1" parent="1" source="VvGGJhDn4q0LMe5ba3Hn-320" target="VvGGJhDn4q0LMe5ba3Hn-313">
          <mxGeometry relative="1" as="geometry">
            <Array as="points">
              <mxPoint x="616" y="1075" />
            </Array>
          </mxGeometry>
        </mxCell>
      </root>
    </mxGraphModel>
  </diagram>
</mxfile>
